<?xml version="1.0" encoding="UTF-8" standalone="no"?>
<!-- Created with Inkscape (http://www.inkscape.org/) -->

<svg
   xmlns:dc="http://purl.org/dc/elements/1.1/"
   xmlns:cc="http://creativecommons.org/ns#"
   xmlns:rdf="http://www.w3.org/1999/02/22-rdf-syntax-ns#"
   xmlns:svg="http://www.w3.org/2000/svg"
   xmlns="http://www.w3.org/2000/svg"
   xmlns:sodipodi="http://sodipodi.sourceforge.net/DTD/sodipodi-0.dtd"
   xmlns:inkscape="http://www.inkscape.org/namespaces/inkscape"
   width="55"
   height="61"
   viewBox="0 0 14.552083 16.139584"
   version="1.1"
   id="svg2577"
   inkscape:version="0.92.5 (2060ec1f9f, 2020-04-08)"
   sodipodi:docname="avalanche.svg">
  <defs
     id="defs2571">
    <linearGradient
       id="paint12_linear_692_2854"
       x1="428.5"
       y1="390.5"
       x2="453.297"
       y2="423.71301"
       gradientUnits="userSpaceOnUse"
       gradientTransform="translate(5.1539121,-5.8261615)">
      <stop
         stop-color="white"
         id="stop268" />
      <stop
         offset="1"
         stop-color="#D0FFF2"
         id="stop270" />
    </linearGradient>
  </defs>
  <sodipodi:namedview
     id="base"
     pagecolor="#ffffff"
     bordercolor="#666666"
     borderopacity="1.0"
     inkscape:pageopacity="0.0"
     inkscape:pageshadow="2"
     inkscape:zoom="0.35"
     inkscape:cx="-412.5"
     inkscape:cy="-275.21429"
     inkscape:document-units="mm"
     inkscape:current-layer="layer1"
     showgrid="false"
     fit-margin-top="0"
     fit-margin-left="0"
     fit-margin-right="0"
     fit-margin-bottom="0"
     units="px"
     inkscape:window-width="1920"
     inkscape:window-height="1031"
     inkscape:window-x="0"
     inkscape:window-y="25"
     inkscape:window-maximized="1" />
  <metadata
     id="metadata2574">
    <rdf:RDF>
      <cc:Work
         rdf:about="">
        <dc:format>image/svg+xml</dc:format>
        <dc:type
           rdf:resource="http://purl.org/dc/dcmitype/StillImage" />
        <dc:title></dc:title>
      </cc:Work>
    </rdf:RDF>
  </metadata>
  <g
     inkscape:label="Layer 1"
     inkscape:groupmode="layer"
     id="layer1"
     transform="translate(-79.658483,-59.876637)">
    <g
       transform="matrix(0.26458333,0,0,0.26458333,-30.713488,-37.006857)"
       id="g2554">
      <path
         d="m 417.15391,368.90584 8.696,-1.316 c 12.474,-1.888 25.134,-1.888 37.608,0 l 8.696,1.316 -0.974,30.453 c -0.248,7.782 -4.323,14.845 -10.718,18.581 l -15.808,9.234 -15.808,-9.234 c -6.395,-3.736 -10.47,-10.799 -10.718,-18.581 z"
         id="path66"
         style="fill:url(#paint12_linear_692_2854)"
         inkscape:connector-curvature="0" />
      <path
         d="m 444.65391,410.17384 c 8.56,0 15.5,-6.94 15.5,-15.5 0,-8.56 -6.94,-15.5 -15.5,-15.5 -8.56,0 -15.5,6.94 -15.5,15.5 0,8.56 6.94,15.5 15.5,15.5 z"
         id="path68"
         inkscape:connector-curvature="0"
         style="fill:#e84142" />
      <path
         d="m 450.12191,395.07684 c 0.537,-0.928 1.403,-0.928 1.94,0 l 3.344,5.87 c 0.537,0.928 0.098,1.684 -0.976,1.684 h -6.737 c -1.062,0 -1.501,-0.756 -0.976,-1.684 z m -6.469,-11.302 c 0.537,-0.927 1.392,-0.927 1.929,0 l 0.744,1.343 1.758,3.087 c 0.427,0.879 0.427,1.917 0,2.795 l -5.895,10.216 c -0.537,0.83 -1.428,1.354 -2.417,1.415 h -4.894 c -1.074,0 -1.513,-0.744 -0.976,-1.684 z"
         id="path70"
         inkscape:connector-curvature="0"
         style="fill:#ffffff" />
    </g>
  </g>
</svg>
