<?xml version="1.0" encoding="UTF-8" standalone="no"?>
<!-- Created with Inkscape (http://www.inkscape.org/) -->

<svg
   xmlns:dc="http://purl.org/dc/elements/1.1/"
   xmlns:cc="http://creativecommons.org/ns#"
   xmlns:rdf="http://www.w3.org/1999/02/22-rdf-syntax-ns#"
   xmlns:svg="http://www.w3.org/2000/svg"
   xmlns="http://www.w3.org/2000/svg"
   xmlns:sodipodi="http://sodipodi.sourceforge.net/DTD/sodipodi-0.dtd"
   xmlns:inkscape="http://www.inkscape.org/namespaces/inkscape"
   width="109.65624"
   height="108.52343"
   viewBox="0 0 29.013213 28.713492"
   version="1.1"
   id="svg1958"
   inkscape:version="0.92.5 (2060ec1f9f, 2020-04-08)"
   sodipodi:docname="favicon.svg">
  <defs
     id="defs1952" />
  <sodipodi:namedview
     id="base"
     pagecolor="#ffffff"
     bordercolor="#666666"
     borderopacity="1.0"
     inkscape:pageopacity="0.0"
     inkscape:pageshadow="2"
     inkscape:zoom="5.6568543"
     inkscape:cx="84.418935"
     inkscape:cy="76.107154"
     inkscape:document-units="mm"
     inkscape:current-layer="layer1"
     showgrid="true"
     fit-margin-top="0"
     fit-margin-left="0"
     fit-margin-right="0"
     fit-margin-bottom="0"
     units="px"
     inkscape:window-width="1920"
     inkscape:window-height="1031"
     inkscape:window-x="0"
     inkscape:window-y="25"
     inkscape:window-maximized="1"
     inkscape:snap-nodes="false">
    <inkscape:grid
       type="xygrid"
       id="grid815"
       originx="0.0010346577"
       originy="0.0020633418" />
  </sodipodi:namedview>
  <metadata
     id="metadata1955">
    <rdf:RDF>
      <cc:Work
         rdf:about="">
        <dc:format>image/svg+xml</dc:format>
        <dc:type
           rdf:resource="http://purl.org/dc/dcmitype/StillImage" />
        <dc:title></dc:title>
      </cc:Work>
    </rdf:RDF>
  </metadata>
  <g
     inkscape:label="Layer 1"
     inkscape:groupmode="layer"
     id="layer1"
     transform="translate(-42.189613,-70.221451)">
    <path
       style="fill:#01897c;stroke-width:0.26458332"
       inkscape:connector-curvature="0"
       id="path116"
       d="m 44.672439,80.765529 -1.322916,1.32371 c -0.367771,0.351896 -0.658813,0.774171 -0.85725,1.24169 -0.198438,0.467254 -0.301625,0.970227 -0.301625,1.478227 0,0.508 0.103187,1.010708 0.301625,1.478227 0.198437,0.467254 0.489479,0.889794 0.85725,1.24169 l 10.662708,10.769335 c 0.254,0.258498 0.547688,0.47281 0.870479,0.634471 V 85.878866 Z" />
    <path
       style="fill:#016471;stroke-width:0.26458332"
       inkscape:connector-curvature="0"
       id="path118"
       d="m 68.720419,80.765529 1.322916,1.32371 c 0.367771,0.351896 0.658813,0.774171 0.85725,1.24169 0.201084,0.467254 0.301625,0.970227 0.301625,1.478227 0,0.508 -0.100541,1.010708 -0.301625,1.478227 -0.198437,0.467254 -0.489479,0.889794 -0.85725,1.24169 L 59.380627,98.298408 c -0.254,0.258498 -0.547687,0.47281 -0.870479,0.634471 V 85.878866 Z" />
    <path
       style="fill:#01c08d;stroke-width:0.26458332"
       inkscape:connector-curvature="0"
       id="path120"
       d="M 66.159252,78.063604 59.48646,71.372556 c -0.351895,-0.364067 -0.775229,-0.653521 -1.243541,-0.851165 -0.465667,-0.197643 -0.968375,-0.299508 -1.476375,-0.299508 -0.505354,0 -1.008063,0.101865 -1.476375,0.299508 -0.465667,0.197644 -0.889,0.487098 -1.243542,0.851165 l -6.691313,6.691048 9.376834,4.678362 z" />
  </g>
</svg>
