<svg width="128" height="35" viewBox="0 0 128 35" fill="none" xmlns="http://www.w3.org/2000/svg">
<path d="M10.3105 23.2298V8.88202H14.4761V14.229H19.395V8.88202H23.5606V23.2298H19.395V17.8828H14.4761V23.2298H10.3105Z" fill="white"/>
<path d="M25.5653 23.2298V8.88202H36.378V12.0902H29.7308V14.4295H35.5582V17.6823H29.7308V20.0216H36.378V23.2298H25.5653Z" fill="white"/>
<path d="M37.7041 23.2298V8.88202H41.8697V23.2298H37.7041Z" fill="white"/>
<path d="M43.8709 23.2298V8.88202H47.9257L51.4708 16.1673L54.9938 8.88202H59.0264V23.2298H54.8609V16.0559L52.5787 20.7791H50.3408L48.0365 16.0559V23.2298H43.8709Z" fill="white"/>
<path d="M61.0298 23.2298V8.88202H67.411C68.8734 8.88202 70.1216 9.12709 71.1556 9.61724C72.1896 10.0925 72.9799 10.8649 73.5264 11.9343C74.073 12.9888 74.3462 14.3924 74.3462 16.145C74.3462 18.6106 73.748 20.4078 72.5515 21.5366C71.355 22.6654 69.6415 23.2298 67.411 23.2298H61.0298ZM65.1953 20.0216H66.8793C67.5735 20.0216 68.157 19.9251 68.6297 19.732C69.1024 19.5241 69.4643 19.1453 69.7154 18.5958C69.9665 18.0314 70.0921 17.2145 70.0921 16.145C70.0921 15.0756 69.9739 14.2513 69.7375 13.6721C69.516 13.0779 69.1688 12.6695 68.6962 12.4467C68.2235 12.2091 67.6178 12.0902 66.8793 12.0902H65.1953V20.0216Z" fill="white"/>
<path d="M74.2401 23.2298L79.713 8.88202H84.1222L89.5951 23.2298H85.2523L84.0558 20.1776H79.7573L78.5829 23.2298H74.2401ZM80.3112 17.1699H83.5018L81.9065 12.9591L80.3112 17.1699Z" fill="white"/>
<path d="M91.1497 23.2298V8.88202H95.3153V20.0216H101.741V23.2298H91.1497Z" fill="white"/>
<path d="M102.856 23.2298V8.88202H107.021V20.0216H113.447V23.2298H102.856Z" fill="white"/>
<path d="M114.562 23.2298V8.88202H121.985C123.152 8.88202 124.104 9.09739 124.843 9.52812C125.596 9.95885 126.158 10.5604 126.527 11.3327C126.896 12.0902 127.081 12.974 127.081 13.984C127.081 14.9494 126.837 15.8034 126.35 16.5461C125.877 17.2739 125.242 17.8308 124.444 18.217C124.607 18.3507 124.747 18.5141 124.865 18.7072C124.983 18.8854 125.116 19.1379 125.264 19.4647L126.903 23.2298H122.561L121.054 19.7766C120.936 19.5092 120.788 19.3236 120.611 19.2196C120.448 19.1008 120.212 19.0413 119.902 19.0413H118.727V23.2298H114.562ZM118.727 15.8331H120.921C121.527 15.8331 121.992 15.6772 122.317 15.3653C122.657 15.0385 122.827 14.5781 122.827 13.984C122.827 12.7215 122.236 12.0902 121.054 12.0902H118.727V15.8331Z" fill="white"/>
<path fill-rule="evenodd" clip-rule="evenodd" d="M29.6991 5.05388L27.9364 4.80517C20.6323 3.77462 13.2187 3.77462 5.91455 4.80517L4.15181 5.05388L4.62674 18.9023C4.73072 21.9342 6.43405 24.696 9.12234 26.16L16.9255 30.4092L24.1783 26.4596H30.5152C29.4758 27.7667 28.1714 28.8759 26.655 29.7017L16.9255 35L7.19594 29.7017C3.26016 27.5584 0.75236 23.5055 0.599238 19.0406L0 1.56751L5.35188 0.81241C13.0293 -0.270803 20.8217 -0.270803 28.4991 0.81241L33.8509 1.56751L33.7112 5.64267L29.6983 5.07682L29.6991 5.05388Z" fill="url(#paint0_linear_692_2867)"/>
<defs>
<linearGradient id="paint0_linear_692_2867" x1="7.40811" y1="-5.08418e-05" x2="34.1365" y2="0.78569" gradientUnits="userSpaceOnUse">
<stop stop-color="#00C78F"/>
<stop offset="1" stop-color="#015B6E"/>
</linearGradient>
</defs>
</svg>
